<?xml version="1.0" encoding="UTF-8" standalone="no"?>
<svg
   xmlns:dc="http://purl.org/dc/elements/1.1/"
   xmlns:cc="http://creativecommons.org/ns#"
   xmlns:rdf="http://www.w3.org/1999/02/22-rdf-syntax-ns#"
   xmlns:svg="http://www.w3.org/2000/svg"
   xmlns="http://www.w3.org/2000/svg"
   xmlns:sodipodi="http://sodipodi.sourceforge.net/DTD/sodipodi-0.dtd"
   xmlns:inkscape="http://www.inkscape.org/namespaces/inkscape"
   inkscape:version="1.0 (1.0+r73)"
   version="1.1"
   viewBox="0 0 283.52 224.78"
   sodipodi:docname="swale_icon.svg"
   id="svg4280">
  <defs
     id="defs10" />
  <sodipodi:namedview
     inkscape:document-rotation="0"
     inkscape:document-units="px"
     inkscape:pageopacity="0.0"
     inkscape:window-width="1366"
     fit-margin-bottom="0"
     fit-margin-right="0"
     inkscape:cy="116.28678"
     inkscape:cx="121.91303"
     inkscape:current-layer="layer1"
     borderopacity="1.0"
     showgrid="false"
     inkscape:window-height="719"
     inkscape:window-x="0"
     inkscape:zoom="2.2329473"
     inkscape:window-maximized="1"
     fit-margin-top="0"
     pagecolor="#ffffff"
     fit-margin-left="0"
     inkscape:window-y="25"
     inkscape:pageshadow="2"
     bordercolor="#666666"
     id="base" />
  <g
     transform="translate(-9.8191 -1.4011)"
     inkscape:groupmode="layer"
     inkscape:label="Layer 1"
     id="layer1">
    <path
       id="path4242"
       style="fill:#16d496;stroke-width:0.168165;fill-opacity:0.97815371"
       inkscape:connector-curvature="0"
       d="m 59.396381,153.83082 c 7.81224,0.43463 14.615673,-0.32646 21.210208,-1.12345 11.95644,-1.44495 9.783138,-1.27041 21.027271,-3.62833 11.82182,-3.2379 21.20011,-7.86834 27.41833,-14.32513 2.7301,-2.83501 2.98715,-3.85361 4.61666,-6.98145 1.09048,-2.72783 1.37634,-5.71767 0.92731,-8.91466 -0.29115,-2.07234 -0.86301,-3.86939 -1.41565,-6.01364 -0.31648,-1.22754 -0.61677,-2.45157 -0.92526,-3.67735 -0.28812,-1.40398 -0.66627,-2.82931 -0.86444,-4.21189 -0.45551,-3.17767 -0.53392,-6.304763 -0.30242,-9.293857 0.22707,-2.933268 0.77348,-6.134002 1.91393,-8.760292 0.6621,-1.523787 1.65248,-2.920846 2.47854,-4.381282 1.17131,-1.470124 2.17531,-3.015172 3.51376,-4.410208 6.41362,-6.684665 15.89158,-11.907883 26.12955,-16.536681 2.74381,-1.240559 5.65735,-2.376969 8.48609,-3.56548 3.00366,-1.097688 5.94958,-2.233221 9.0111,-3.293118 3.01127,-1.042437 6.06496,-2.057619 9.20518,-3.013201 5.89897,-1.795082 12.13874,-3.559187 19.08051,-4.587285 3.2312,-0.478585 6.42598,-1.046406 10.20234,-0.993181 4.06656,0.0572 8.70119,0.880629 13.05153,1.32093 l -53.41816,-11.02567 c -4.26816,-0.179131 -8.81154,-0.672339 -12.80443,-0.537353 -3.69625,0.124974 -6.8814,0.746795 -10.09136,1.311391 -3.39192,0.59663 -6.57122,1.362655 -9.68867,2.167794 -9.89988,2.556804 -18.70808,5.884905 -27.41781,9.236748 -2.81293,1.228628 -5.71307,2.404634 -8.43891,3.685913 -12.452145,5.853185 -23.454417,12.694597 -29.226448,21.92937 -0.783544,1.552984 -1.725796,3.046368 -2.350811,4.658952 -1.057675,2.729484 -1.567515,6.093613 -1.744223,9.11631 -0.185833,3.177776 -0.04596,6.263932 0.469646,9.629731 0.215647,1.407923 0.600739,2.855849 0.900961,4.283839 0.310737,1.2304 0.619434,2.4604 0.932301,3.6913 0.511632,2.01318 1.046555,3.76968 1.258973,5.70183 0.323694,2.94733 -0.119033,5.67145 -1.290873,8.14551 -1.749333,2.9127 -2.039379,3.8373 -4.841367,6.4667 -6.424596,6.02945 -16.044833,10.37563 -27.851952,13.20991 -3.532292,0.66062 -6.945554,1.41753 -10.597034,1.9819 -3.403488,0.52604 -6.963958,0.92184 -10.553772,1.28722 -6.188056,0.6298 -9.073634,0.80018 -15.425662,0.81252 -1.244811,0.003 -2.5511901,-0.0668 -3.8204641,-0.0924 -0.704798,-0.0165 -1.401115,-0.0192 -2.101685,-0.0279 L 59.396649,153.8316 Z" />
    <path
       d="m 80.720374,178.2482 c 7.064567,3.91059 13.748281,5.63403 20.254406,7.21704 11.79611,2.87024 9.69305,2.21846 21.25227,3.44298 12.50696,0.16728 23.3902,-2.74353 32.18547,-9.67259 3.86162,-3.04243 4.57571,-4.43844 7.55008,-8.37368 2.28642,-3.57032 3.94651,-7.8641 5.01959,-12.77118 0.6955,-3.18088 1.00152,-6.07285 1.4873,-9.46928 0.27801,-1.94446 0.56943,-3.87692 0.85406,-5.81545 0.38667,-2.19303 0.69954,-4.45523 1.15989,-6.57902 1.05804,-4.88127 2.44328,-9.53007 4.05248,-13.8455 1.57902,-4.23486 3.57984,-8.73094 5.86538,-12.13046 1.32647,-1.97225 2.89921,-3.62007 4.34866,-5.4302 1.77512,-1.67996 3.42954,-3.54052 5.32514,-5.03971 9.08329,-7.183664 20.33566,-10.927767 32.01786,-13.476404 3.13086,-0.683082 6.37106,-1.141399 9.55668,-1.712111 3.30597,-0.363453 6.57588,-0.806929 9.91807,-1.090382 3.28729,-0.278708 6.60132,-0.499436 9.96807,-0.595974 6.3245,-0.181352 12.9516,-0.174371 19.8885,1.212809 3.22895,0.645641 6.46563,1.144318 9.95373,2.803102 3.75619,1.786082 7.68353,4.940938 11.52506,7.411279 L 248.35282,55.705305 c -3.88687,-2.050432 -7.88331,-4.679648 -11.66059,-6.151216 -3.49667,-1.362218 -6.74958,-1.777156 -9.99887,-2.286945 -3.43351,-0.538643 -6.74822,-0.738269 -10.02362,-0.854273 -10.4015,-0.368426 -20.14713,0.858496 -29.81224,2.161669 -3.18961,0.636548 -6.43581,1.158924 -9.56895,1.909631 -14.31284,3.429473 -27.73776,8.924396 -37.41335,20.140824 -1.45306,1.964531 -3.02595,3.774685 -4.35932,5.893526 -2.25667,3.586487 -4.29964,8.339045 -5.87354,12.727003 -1.65469,4.613056 -2.9637,9.227126 -4.05351,14.411256 -0.45593,2.16852 -0.77287,4.46699 -1.15948,6.70052 -0.28469,1.94625 -0.57109,3.89109 -0.85402,5.839 -0.46282,3.18578 -0.78429,6.00247 -1.48766,8.94345 -1.07324,4.48608 -2.75536,8.32199 -4.99912,11.48363 -2.98551,3.56757 -3.68646,4.811 -7.51909,7.51986 -8.78797,6.21189 -19.763724,8.60185 -32.068792,7.8449 -3.593923,-0.50292 -7.122021,-0.8139 -10.781936,-1.50877 -3.411347,-0.64768 -6.907994,-1.55332 -10.417757,-2.51611 -6.05004,-1.65974 -8.813764,-2.6157 -14.728413,-5.25548 -1.15942,-0.51633 -2.342075,-1.16611 -3.510853,-1.73508 -0.647935,-0.31929 -1.294405,-0.61468 -1.942073,-0.92059 l 44.600609,38.19739 z"
       inkscape:connector-curvature="0"
       style="fill:#164d96;fill-opacity:0.978154;stroke-width:0.210595"
       id="path4242-6" />
    <path
       d="m 136.05744,193.00544 c 7.81226,0.43464 14.61569,-0.32646 21.21021,-1.12344 11.95645,-1.44495 9.78315,-1.27042 21.02729,-3.62834 11.8218,-3.23789 21.20008,-7.86833 27.41831,-14.32513 2.73009,-2.83501 2.98715,-3.8536 4.61666,-6.98144 1.09048,-2.72784 1.37633,-5.71768 0.92731,-8.91466 -0.29115,-2.07235 -0.86301,-3.8694 -1.41565,-6.01365 -0.31648,-1.22753 -0.61677,-2.45157 -0.92526,-3.67734 -0.28812,-1.404 -0.66627,-2.82931 -0.86444,-4.2119 -0.45551,-3.17767 -0.53392,-6.30477 -0.30243,-9.29385 0.22708,-2.93327 0.77349,-6.13401 1.91394,-8.7603 0.6621,-1.52379 1.65248,-2.92085 2.47854,-4.38128 1.17131,-1.47012 2.17531,-3.01518 3.51376,-4.41021 6.41363,-6.68467 15.89159,-11.90789 26.12955,-16.53668 2.74381,-1.240564 5.65735,-2.376974 8.48609,-3.565484 3.00366,-1.097692 5.94958,-2.233225 9.0111,-3.293122 3.01127,-1.042437 6.06497,-2.05762 9.20518,-3.013202 5.89897,-1.795081 12.13875,-3.559187 19.08051,-4.587285 3.2312,-0.478585 6.42599,-1.046406 10.20235,-0.993181 4.06655,0.0572 8.70118,0.880629 13.05152,1.32093 l -53.41816,-11.02567 c -4.26816,-0.179131 -8.81154,-0.672338 -12.80443,-0.537353 -3.69625,0.124974 -6.8814,0.746796 -10.09136,1.311391 -3.39192,0.596631 -6.57122,1.362656 -9.68867,2.167794 -9.89988,2.556805 -18.70808,5.884905 -27.41781,9.236749 -2.81293,1.228628 -5.71308,2.404633 -8.43891,3.685913 -12.45213,5.853186 -23.45441,12.6946 -29.22644,21.92937 -0.78355,1.55299 -1.7258,3.04637 -2.35081,4.65895 -1.05768,2.7295 -1.56751,6.09362 -1.74422,9.11632 -0.18584,3.17777 -0.046,6.26393 0.46964,9.62973 0.21565,1.40792 0.60074,2.85585 0.90097,4.28383 0.31074,1.23041 0.61943,2.46041 0.93229,3.69132 0.51164,2.01317 1.04657,3.76966 1.25898,5.70182 0.32369,2.94734 -0.11907,5.67146 -1.29087,8.14551 -1.74933,2.9127 -2.03939,3.83731 -4.84138,6.46671 -6.42459,6.02944 -16.04483,10.37562 -27.85194,13.2099 -3.53229,0.66062 -6.94555,1.41753 -10.59704,1.9819 -3.40348,0.52605 -6.96395,0.92184 -10.55376,1.28722 -6.188059,0.62981 -9.073637,0.80019 -15.425666,0.81252 -1.244816,0.003 -2.55119,-0.0668 -3.820464,-0.0924 -0.704798,-0.0165 -1.401115,-0.0192 -2.101685,-0.0279 l 53.337475,10.75673 z"
       inkscape:connector-curvature="0"
       style="fill:#16d496;stroke-width:0.168165;fill-opacity:0.97815371"
       id="path4242-3" />
  </g>
  <metadata
     id="metadata7">
    <rdf:RDF>
      <cc:Work>
        <dc:format>image/svg+xml</dc:format>
        <dc:type
           rdf:resource="http://purl.org/dc/dcmitype/StillImage" />
        <cc:license
           rdf:resource="http://creativecommons.org/licenses/publicdomain/" />
        <dc:publisher>
          <cc:Agent
             rdf:about="http://openclipart.org/">
            <dc:title>Openclipart</dc:title>
          </cc:Agent>
        </dc:publisher>
        <dc:title>Indian Flag </dc:title>
        <dc:date>2012-08-11T13:36:08</dc:date>
        <dc:description>Indian Flag for 65th India Independence Day 2012</dc:description>
        <dc:source>https://openclipart.org/detail/171660/indian-flag--by-gsagri04-171660</dc:source>
        <dc:creator>
          <cc:Agent>
            <dc:title>gsagri04</dc:title>
          </cc:Agent>
        </dc:creator>
        <dc:subject>
          <rdf:Bag>
            <rdf:li>India</rdf:li>
            <rdf:li>day</rdf:li>
            <rdf:li>flag</rdf:li>
            <rdf:li>independence</rdf:li>
            <rdf:li>tricolor</rdf:li>
          </rdf:Bag>
        </dc:subject>
      </cc:Work>
      <cc:License
         rdf:about="http://creativecommons.org/licenses/publicdomain/">
        <cc:permits
           rdf:resource="http://creativecommons.org/ns#Reproduction" />
        <cc:permits
           rdf:resource="http://creativecommons.org/ns#Distribution" />
        <cc:permits
           rdf:resource="http://creativecommons.org/ns#DerivativeWorks" />
      </cc:License>
    </rdf:RDF>
  </metadata>
</svg>
